<svg width="75" height="57" viewBox="0 0 75 57" fill="none" xmlns="http://www.w3.org/2000/svg">
<path d="M72.2672 16.8125H63.6141L61.2091 10.8C58.7376 4.61841 52.8393 0.625 46.1807 0.625H27.8252C21.1681 0.625 15.2683 4.61841 12.7954 10.8L10.3904 16.8125H1.73872C0.609925 16.8125 -0.218241 17.8734 0.056369 18.9675L0.923558 22.4363C1.11578 23.2081 1.80954 23.7501 2.6059 23.7501H5.50665C3.56559 25.4454 2.3154 27.9097 2.3154 30.6876V37.6251C2.3154 39.9549 3.20571 42.0579 4.6279 43.6853V51.5001C4.6279 54.054 6.69903 56.1251 9.2529 56.1251H13.8779C16.4318 56.1251 18.5029 54.054 18.5029 51.5001V46.8751H55.503V51.5001C55.503 54.054 57.5741 56.1251 60.128 56.1251H64.753C67.3069 56.1251 69.378 54.054 69.378 51.5001V43.6853C70.8002 42.0593 71.6905 39.9564 71.6905 37.6251V30.6876C71.6905 27.9097 70.4403 25.4454 68.5007 23.7501H71.4014C72.1978 23.7501 72.8915 23.2081 73.0838 22.4363L73.951 18.9675C74.2241 17.8734 73.396 16.8125 72.2672 16.8125ZM21.3834 14.2355C22.4371 11.6022 24.988 9.87502 27.8252 9.87502H46.1807C49.0178 9.87502 51.5688 11.6022 52.6225 14.2355L55.503 21.4375H18.5029L21.3834 14.2355ZM13.8779 37.5962C11.1029 37.5962 9.2529 35.752 9.2529 32.9856C9.2529 30.2193 11.1029 28.3751 13.8779 28.3751C16.6529 28.3751 20.8154 32.5246 20.8154 35.2909C20.8154 38.0572 16.6529 37.5962 13.8779 37.5962ZM60.128 37.5962C57.353 37.5962 53.1905 38.0572 53.1905 35.2909C53.1905 32.5246 57.353 28.3751 60.128 28.3751C62.903 28.3751 64.753 30.2193 64.753 32.9856C64.753 35.752 62.903 37.5962 60.128 37.5962V37.5962Z" fill="black"/>
</svg>
