<svg width="17" height="11" viewBox="0 0 17 11" fill="none" xmlns="http://www.w3.org/2000/svg">
<path fill-rule="evenodd" clip-rule="evenodd" d="M1.99617 1.37514L7.99451 8.63527L14.0237 1.40073C14.1029 1.30572 14.2046 1.2242 14.323 1.1608C14.4414 1.0974 14.5743 1.05338 14.7139 1.03125C14.8536 1.00911 14.9973 1.00929 15.137 1.03179C15.2766 1.05428 15.4093 1.09865 15.5277 1.16235C15.7666 1.291 15.9323 1.4906 15.9882 1.71724C16.0159 1.82947 16.0158 1.94495 15.9879 2.0571C15.9601 2.16925 15.905 2.27587 15.8258 2.37088L8.99109 10.572C8.88097 10.7041 8.73193 10.8123 8.55721 10.8869C8.38248 10.9616 8.18747 11.0005 7.98948 11C7.79149 10.9996 7.59665 10.9599 7.42224 10.8845C7.24784 10.8091 7.09926 10.7003 6.98971 10.5677L0.18998 2.33761C0.111209 2.24227 0.0565688 2.13541 0.0291781 2.02314C0.00178753 1.91088 0.0021816 1.79539 0.0303418 1.68329C0.0585019 1.57119 0.113875 1.46466 0.193299 1.36979C0.272723 1.27491 0.374643 1.19356 0.493239 1.13036C0.611835 1.06716 0.744785 1.02336 0.884498 1.00146C1.02421 0.979562 1.16795 0.979989 1.30751 1.00272C1.44707 1.02545 1.57972 1.07004 1.69788 1.13394C1.81604 1.19783 1.9174 1.2798 1.99617 1.37514V1.37514Z" fill="#231F20"/>
</svg>
