<svg width="34" height="33" viewBox="0 0 34 33" fill="none" xmlns="http://www.w3.org/2000/svg">
<path d="M33 14.78C33.3717 14.5032 33.6474 14.1169 33.7884 13.6754C33.9295 13.234 33.9289 12.7594 33.7866 12.3183C33.6444 11.8773 33.3676 11.4917 32.9952 11.2159C32.6228 10.94 32.1734 10.7876 31.71 10.78L22.71 10.44C22.6658 10.437 22.6234 10.4212 22.5879 10.3946C22.5524 10.368 22.5253 10.3317 22.51 10.29L19.4 1.89002C19.2438 1.46266 18.96 1.09364 18.587 0.832921C18.2141 0.572199 17.7701 0.432373 17.315 0.432373C16.86 0.432373 16.416 0.572199 16.043 0.832921C15.6701 1.09364 15.3863 1.46266 15.23 1.89002L12.13 10.32C12.1147 10.3617 12.0877 10.398 12.0522 10.4246C12.0167 10.4512 11.9743 10.467 11.93 10.47L2.93002 10.81C2.46663 10.8176 2.01722 10.97 1.64482 11.2459C1.27241 11.5217 0.995684 11.9073 0.853434 12.3483C0.711184 12.7894 0.710546 13.264 0.851609 13.7054C0.992672 14.1469 1.26836 14.5332 1.64002 14.81L8.70002 20.36C8.73536 20.3878 8.76177 20.4254 8.77598 20.468C8.7902 20.5107 8.79161 20.5566 8.78002 20.6L6.35002 29.21C6.2241 29.6485 6.2363 30.1151 6.38496 30.5463C6.53362 30.9776 6.81153 31.3526 7.18087 31.6203C7.55022 31.888 7.99307 32.0355 8.44918 32.0426C8.90529 32.0497 9.35252 31.9161 9.73002 31.66L17.19 26.66C17.2268 26.6347 17.2704 26.6211 17.315 26.6211C17.3597 26.6211 17.4033 26.6347 17.44 26.66L24.9 31.66C25.2724 31.9249 25.7181 32.0672 26.175 32.0672C26.632 32.0672 27.0776 31.9249 27.45 31.66C27.8195 31.3948 28.0976 31.0217 28.2463 30.5919C28.3949 30.1621 28.4067 29.6968 28.28 29.26L25.83 20.62C25.817 20.5767 25.8178 20.5303 25.8321 20.4874C25.8464 20.4444 25.8736 20.4069 25.91 20.38L33 14.78Z" fill="white"/>
</svg>
