<svg width="44" height="44" viewBox="0 0 44 44" fill="none" xmlns="http://www.w3.org/2000/svg">
<path d="M22 42C33.046 42 42 33.046 42 22C42 10.954 33.046 2 22 2C10.954 2 2 10.954 2 22C2 33.046 10.954 42 22 42Z" stroke="white" stroke-width="4" stroke-linecap="round" stroke-linejoin="round"/>
<path d="M2 22H42" stroke="white" stroke-width="4" stroke-linecap="round" stroke-linejoin="round"/>
<path d="M22 42C26.418 42 30 33.046 30 22C30 10.954 26.418 2 22 2C17.582 2 14 10.954 14 22C14 33.046 17.582 42 22 42Z" stroke="white" stroke-width="4" stroke-linecap="round" stroke-linejoin="round"/>
<path d="M36.142 35.858C34.2869 33.998 32.0825 32.523 29.6556 31.5177C27.2286 30.5123 24.6269 29.9966 22 30C19.373 29.9966 16.7713 30.5123 14.3444 31.5177C11.9174 32.523 9.71304 33.998 7.85797 35.858M7.85797 8.14197C9.71304 10.0019 11.9174 11.477 14.3444 12.4823C16.7713 13.4876 19.373 14.0034 22 14V14C24.6269 14.0034 27.2286 13.4876 29.6556 12.4823C32.0825 11.477 34.2869 10.0019 36.142 8.14197H7.85797Z" stroke="white" stroke-width="4" stroke-linecap="round" stroke-linejoin="round"/>
</svg>
